<?xml version="1.0" encoding="UTF-8" standalone="no"?>
<svg width="53px" height="25px" viewBox="0 0 53 25" version="1.1" xmlns="http://www.w3.org/2000/svg" xmlns:xlink="http://www.w3.org/1999/xlink">
    <!-- Generator: Sketch 47.1 (45422) - http://www.bohemiancoding.com/sketch -->
    <title>logo_uKit</title>
    <desc>Created with Sketch.</desc>
    <defs></defs>
    <g id="Page-1" stroke="none" stroke-width="1" fill="none" fill-rule="evenodd">
        <g id="Desktop-HD" transform="translate(-64.000000, -36.000000)">
            <g id="b-header">
                <g id="img-ukit-logo" transform="translate(64.000000, 36.000000)">
                    <g id="logo_uKit">
                        <path d="M52.843114,10.8635685 L48.7401798,10.8635685 L48.7401798,18.9068182 C48.7401798,20.7625848 49.392249,21.5119064 50.921981,21.5119064 C51.4752035,21.5119064 52.1918419,21.3811737 52.7131784,21.1205054 L52.811228,23.6283412 C52.0945896,23.8882123 51.1499661,24.0516282 50.2061398,24.0516282 C47.3084973,24.0516282 45.7133989,22.4230495 45.7133989,19.228867 L45.7133989,10.8611771 L42.7495929,10.8611771 L42.7495929,8.3541384 L45.7133989,8.3541384 L45.7133989,3.92516961 L48.7409769,3.92516961 L48.7409769,8.3541384 L52.8439111,8.3541384 L52.8439111,10.8611771 M39.3911974,23.7877714 L36.3309362,23.7877714 L36.3309362,8.35334125 L39.3911974,8.35334125 L39.3911974,23.7877714 M37.8606682,4.73906038 C36.7534261,4.73906038 35.8422829,3.85980326 35.8422829,2.78524423 C35.8422829,1.67800204 36.7542232,0.798744912 37.8606682,0.798744912 C38.9679104,0.798744912 39.9125339,1.64611601 39.9125339,2.78524423 C39.9125339,3.89248643 38.9679104,4.73906038 37.8606682,4.73906038 M22.0228799,14.9585312 L22.1201323,14.9585312 L28.5993725,8.35334125 L32.476713,8.35334125 L25.5582429,15.3539179 L33.3806818,23.7869742 L29.0888229,23.7869742 L22.1201323,15.904749 L22.0228799,15.904749 L22.0228799,23.7869742 L18.9626187,23.7869742 L18.9626187,0.793962008 L22.0228799,0.793962008 L22.0228799,14.9577341" id="Shape" fill="#FFFFFF"></path>
                        <path d="M11.0054613,23.7901628 C10.940095,23.0081581 10.8755258,21.901713 10.8755258,21.250441 L10.8101594,21.250441 C10.0281547,22.8782225 8.00976934,24.2134498 5.76339891,24.2134498 C1.79119742,24.2134498 8.8817842e-16,21.3803765 8.8817842e-16,17.9287144 L8.8817842e-16,8.35493555 L3.06105834,8.35493555 L3.06105834,16.8860414 C3.06105834,19.4257632 3.74501357,21.6402476 6.57728969,21.6402476 C9.01975916,21.6402476 10.7129071,19.6218623 10.7129071,16.5608039 L10.7129071,8.35493555 L13.7731682,8.35493555 L13.7731682,20.4684362 C13.7731682,21.282327 13.8058514,22.780173 13.9039009,23.7893657 L11.0054613,23.7893657" id="Shape" fill="#338FFF"></path>
                    </g>
                </g>
            </g>
        </g>
    </g>
</svg>