<?xml version="1.0" encoding="UTF-8" standalone="no"?>
<svg width="299px" height="76px" viewBox="0 0 299 76" version="1.1" xmlns="http://www.w3.org/2000/svg" xmlns:xlink="http://www.w3.org/1999/xlink">
    <!-- Generator: Sketch 47.1 (45422) - http://www.bohemiancoding.com/sketch -->
    <title>img-ukit-ai-logo</title>
    <desc>Created with Sketch.</desc>
    <defs></defs>
    <g id="Symbols" stroke="none" stroke-width="1" fill="none" fill-rule="evenodd">
        <g id="img-ukit-ai-logo" fill-rule="nonzero">
            <g>
                <path d="M41.7529412,64.1470588 C42.3781513,64.1470588 42.9,64.6941176 42.9,65.3621849 C42.9,66.0605042 42.3756303,66.602521 41.7529412,66.602521 C41.110084,66.602521 40.6033613,66.0605042 40.6033613,65.3621849 C40.6033613,64.6941176 41.110084,64.1470588 41.7529412,64.1470588 Z" id="Shape" fill="#338FFF"></path>
                <path d="M37.1596639,64.1470588 C37.802521,64.1470588 38.3092437,64.6941176 38.3092437,65.3621849 C38.3092437,66.0605042 37.802521,66.602521 37.1596639,66.602521 C36.5294118,66.602521 36.010084,66.0605042 36.010084,65.3621849 C36.010084,64.6941176 36.5319328,64.1470588 37.1596639,64.1470588 Z" id="Shape" fill="#338FFF"></path>
                <path d="M39.4563025,61.6890756 C40.0764706,61.6890756 40.6033613,62.2361345 40.6033613,62.9067227 C40.6033613,63.589916 40.0789916,64.1470588 39.4563025,64.1470588 C38.8134454,64.1470588 38.3067227,63.592437 38.3067227,62.9067227 C38.3092437,62.2361345 38.8134454,61.6890756 39.4563025,61.6890756 Z" id="Shape" fill="#338FFF"></path>
                <path d="M44.0344538,61.6890756 C44.6773109,61.6890756 45.1789916,62.2361345 45.1789916,62.9067227 C45.1789916,63.589916 44.6773109,64.1470588 44.0344538,64.1470588 C43.4067227,64.1470588 42.9,63.592437 42.9,62.9067227 C42.9,62.2361345 43.4067227,61.6890756 44.0344538,61.6890756 Z" id="Shape" fill="#338FFF"></path>
                <path d="M34.8579832,61.6890756 C35.5033613,61.6890756 36.012605,62.2361345 36.012605,62.9067227 C36.012605,63.589916 35.5058824,64.1470588 34.8579832,64.1470588 C34.2378151,64.1470588 33.7159664,63.592437 33.7159664,62.9067227 C33.7159664,62.2361345 34.2378151,61.6890756 34.8579832,61.6890756 Z" id="Shape" fill="#338FFF"></path>
                <path d="M44.0344538,56.7731092 C44.6773109,56.7731092 45.1789916,57.3226891 45.1789916,57.9907563 C45.1789916,58.6663866 44.6773109,59.2285714 44.0344538,59.2285714 C43.4067227,59.2285714 42.9,58.6663866 42.9,57.9907563 C42.9,57.3226891 43.4067227,56.7731092 44.0344538,56.7731092 Z" id="Shape" fill="#338FFF"></path>
                <path d="M37.1596639,54.3151261 C37.802521,54.3151261 38.3092437,54.8672269 38.3092437,55.5378151 C38.3092437,56.2109244 37.802521,56.7731092 37.1596639,56.7731092 C36.5294118,56.7731092 36.010084,56.2109244 36.010084,55.5378151 C36.010084,54.8672269 36.5319328,54.3151261 37.1596639,54.3151261 Z" id="Shape" fill="#338FFF"></path>
                <path d="M39.4563025,51.8571429 C40.0764706,51.8571429 40.6033613,52.4067227 40.6033613,53.0823529 C40.6033613,53.7504202 40.0789916,54.312605 39.4563025,54.312605 C38.8134454,54.312605 38.3067227,53.7504202 38.3067227,53.0823529 C38.3092437,52.4092437 38.8134454,51.8571429 39.4563025,51.8571429 Z" id="Shape" fill="#338FFF"></path>
                <path d="M44.0344538,51.8571429 C44.6773109,51.8571429 45.1789916,52.4067227 45.1789916,53.0823529 C45.1789916,53.7504202 44.6773109,54.312605 44.0344538,54.312605 C43.4067227,54.312605 42.9,53.7504202 42.9,53.0823529 C42.9,52.4092437 43.4067227,51.8571429 44.0344538,51.8571429 Z" id="Shape" fill="#338FFF"></path>
                <path d="M34.8579832,51.8571429 C35.5033613,51.8571429 36.012605,52.4067227 36.012605,53.0823529 C36.012605,53.7504202 35.5058824,54.312605 34.8579832,54.312605 C34.2378151,54.312605 33.7159664,53.7504202 33.7159664,53.0823529 C33.7159664,52.4092437 34.2378151,51.8571429 34.8579832,51.8571429 Z" id="Shape" fill="#338FFF"></path>
                <path d="M41.7529412,49.3915966 C42.3781513,49.3915966 42.9,49.9487395 42.9,50.6243697 C42.9,51.292437 42.3756303,51.8571429 41.7529412,51.8571429 C41.110084,51.8571429 40.6033613,51.292437 40.6033613,50.6243697 C40.6033613,49.9487395 41.110084,49.3915966 41.7529412,49.3915966 Z" id="Shape" fill="#338FFF"></path>
                <path d="M41.7529412,44.4731092 C42.3781513,44.4731092 42.9,45.0378151 42.9,45.7109244 C42.9,46.3815126 42.3756303,46.9285714 41.7529412,46.9285714 C41.110084,46.9285714 40.6033613,46.3789916 40.6033613,45.7109244 C40.6033613,45.0378151 41.110084,44.4731092 41.7529412,44.4731092 Z" id="Shape" fill="#338FFF"></path>
                <path d="M37.1596639,44.4731092 C37.802521,44.4731092 38.3092437,45.0378151 38.3092437,45.7109244 C38.3092437,46.3815126 37.802521,46.9285714 37.1596639,46.9285714 C36.5294118,46.9285714 36.010084,46.3789916 36.010084,45.7109244 C36.010084,45.0378151 36.5319328,44.4731092 37.1596639,44.4731092 Z" id="Shape" fill="#338FFF"></path>
                <path d="M34.8579832,42.0151261 C35.5033613,42.0151261 36.012605,42.5773109 36.012605,43.2554622 C36.012605,43.9285714 35.5058824,44.4756303 34.8579832,44.4756303 C34.2378151,44.4756303 33.7159664,43.9285714 33.7159664,43.2554622 C33.7159664,42.5773109 34.2378151,42.0151261 34.8579832,42.0151261 Z" id="Shape" fill="#338FFF"></path>
                <path d="M37.1596639,39.5571429 C37.802521,39.5571429 38.3092437,40.1117647 38.3092437,40.797479 C38.3092437,41.4705882 37.802521,42.012605 37.1596639,42.012605 C36.5294118,42.012605 36.010084,41.4705882 36.010084,40.797479 C36.010084,40.1117647 36.5319328,39.5571429 37.1596639,39.5571429 Z" id="Shape" fill="#338FFF"></path>
                <path d="M39.4563025,37.0991597 C40.0764706,37.0991597 40.6033613,37.6537815 40.6033613,38.3394958 C40.6033613,39.0151261 40.0789916,39.5571429 39.4563025,39.5571429 C38.8134454,39.5571429 38.3067227,39.0151261 38.3067227,38.3394958 C38.3092437,37.6537815 38.8134454,37.0991597 39.4563025,37.0991597 Z" id="Shape" fill="#338FFF"></path>
                <path d="M44.0344538,37.0991597 C44.6773109,37.0991597 45.1789916,37.6537815 45.1789916,38.3394958 C45.1789916,39.0151261 44.6773109,39.5571429 44.0344538,39.5571429 C43.4067227,39.5571429 42.9,39.0151261 42.9,38.3394958 C42.9,37.6537815 43.4067227,37.0991597 44.0344538,37.0991597 Z" id="Shape" fill="#338FFF"></path>
                <path d="M34.8579832,37.0991597 C35.5033613,37.0991597 36.012605,37.6537815 36.012605,38.3394958 C36.012605,39.0151261 35.5058824,39.5571429 34.8579832,39.5571429 C34.2378151,39.5571429 33.7159664,39.0151261 33.7159664,38.3394958 C33.7159664,37.6537815 34.2378151,37.0991597 34.8579832,37.0991597 Z" id="Shape" fill="#338FFF"></path>
                <path d="M41.7529412,34.6411765 C42.3781513,34.6411765 42.9,35.1957983 42.9,35.8840336 C42.9,36.5621849 42.3756303,37.1016807 41.7529412,37.1016807 C41.110084,37.1016807 40.6033613,36.5621849 40.6033613,35.8840336 C40.6033613,35.1957983 41.110084,34.6411765 41.7529412,34.6411765 Z" id="Shape" fill="#338FFF"></path>
                <path d="M39.4563025,32.1882353 C40.0764706,32.1882353 40.6033613,32.7352941 40.6033613,33.4260504 C40.6033613,34.0991597 40.0789916,34.6411765 39.4563025,34.6411765 C38.8134454,34.6411765 38.3067227,34.0991597 38.3067227,33.4260504 C38.3092437,32.7352941 38.8134454,32.1882353 39.4563025,32.1882353 Z" id="Shape" fill="#338FFF"></path>
                <path d="M44.0344538,32.1882353 C44.6773109,32.1882353 45.1789916,32.7352941 45.1789916,33.4260504 C45.1789916,34.0991597 44.6773109,34.6411765 44.0344538,34.6411765 C43.4067227,34.6411765 42.9,34.0991597 42.9,33.4260504 C42.9,32.7352941 43.4067227,32.1882353 44.0344538,32.1882353 Z" id="Shape" fill="#338FFF"></path>
                <path d="M37.1596639,29.7302521 C37.802521,29.7302521 38.3092437,30.2773109 38.3092437,30.9680672 C38.3092437,31.6411765 37.802521,32.1882353 37.1596639,32.1882353 C36.5294118,32.1882353 36.010084,31.6411765 36.010084,30.9680672 C36.010084,30.2773109 36.5319328,29.7302521 37.1596639,29.7302521 Z" id="Shape" fill="#338FFF"></path>
                <path d="M39.4563025,27.2747899 C40.0764706,27.2747899 40.6033613,27.8218487 40.6033613,28.5151261 C40.6033613,29.1882353 40.0789916,29.7327731 39.4563025,29.7327731 C38.8134454,29.7327731 38.3067227,29.1882353 38.3067227,28.5151261 C38.3092437,27.8218487 38.8134454,27.2747899 39.4563025,27.2747899 Z" id="Shape" fill="#338FFF"></path>
                <path d="M41.7529412,24.8168067 C42.3781513,24.8168067 42.9,25.3613445 42.9,26.0521008 C42.9,26.7302521 42.3756303,27.2747899 41.7529412,27.2747899 C41.110084,27.2747899 40.6033613,26.7302521 40.6033613,26.0521008 C40.6033613,25.3638655 41.110084,24.8168067 41.7529412,24.8168067 Z" id="Shape" fill="#338FFF"></path>
                <path d="M37.1596639,24.8168067 C37.802521,24.8168067 38.3092437,25.3613445 38.3092437,26.0521008 C38.3092437,26.7302521 37.802521,27.2747899 37.1596639,27.2747899 C36.5294118,27.2747899 36.010084,26.7302521 36.010084,26.0521008 C36.010084,25.3638655 36.5319328,24.8168067 37.1596639,24.8168067 Z" id="Shape" fill="#338FFF"></path>
                <path d="M34.8579832,22.3638655 C35.5033613,22.3638655 36.012605,22.9084034 36.012605,23.5941176 C36.012605,24.2722689 35.5058824,24.8168067 34.8579832,24.8168067 C34.2378151,24.8168067 33.7159664,24.2697479 33.7159664,23.5941176 C33.7159664,22.9058824 34.2378151,22.3638655 34.8579832,22.3638655 Z" id="Shape" fill="#338FFF"></path>
                <path d="M41.7529412,19.9084034 C42.3781513,19.9084034 42.9,20.4504202 42.9,21.1310924 C42.9,21.8117647 42.3756303,22.3638655 41.7529412,22.3638655 C41.110084,22.3638655 40.6033613,21.8117647 40.6033613,21.1310924 C40.6033613,20.4504202 41.110084,19.9084034 41.7529412,19.9084034 Z" id="Shape" fill="#338FFF"></path>
                <path d="M37.1596639,19.9084034 C37.802521,19.9084034 38.3092437,20.4504202 38.3092437,21.1310924 C38.3092437,21.8117647 37.802521,22.3638655 37.1596639,22.3638655 C36.5294118,22.3638655 36.010084,21.8117647 36.010084,21.1310924 C36.010084,20.4504202 36.5319328,19.9084034 37.1596639,19.9084034 Z" id="Shape" fill="#338FFF"></path>
                <path d="M39.4563025,17.4504202 C40.0764706,17.4504202 40.6033613,17.992437 40.6033613,18.6655462 C40.6033613,19.3563025 40.0789916,19.9084034 39.4563025,19.9084034 C38.8134454,19.9084034 38.3067227,19.3563025 38.3067227,18.6655462 C38.3092437,17.994958 38.8134454,17.4504202 39.4563025,17.4504202 Z" id="Shape" fill="#338FFF"></path>
                <path d="M44.0344538,17.4504202 C44.6773109,17.4504202 45.1789916,17.992437 45.1789916,18.6655462 C45.1789916,19.3563025 44.6773109,19.9084034 44.0344538,19.9084034 C43.4067227,19.9084034 42.9,19.3563025 42.9,18.6655462 C42.9,17.994958 43.4067227,17.4504202 44.0344538,17.4504202 Z" id="Shape" fill="#338FFF"></path>
                <path d="M41.7529412,14.989916 C42.3781513,14.989916 42.9,15.5344538 42.9,16.210084 C42.9,16.8983193 42.3756303,17.4504202 41.7529412,17.4504202 C41.110084,17.4504202 40.6033613,16.8983193 40.6033613,16.210084 C40.6033613,15.5344538 41.110084,14.989916 41.7529412,14.989916 Z" id="Shape" fill="#338FFF"></path>
                <path d="M37.1596639,14.989916 C37.802521,14.989916 38.3092437,15.5344538 38.3092437,16.210084 C38.3092437,16.8983193 37.802521,17.4504202 37.1596639,17.4504202 C36.5294118,17.4504202 36.010084,16.8983193 36.010084,16.210084 C36.010084,15.5344538 36.5319328,14.989916 37.1596639,14.989916 Z" id="Shape" fill="#338FFF"></path>
                <path d="M34.8579832,12.5344538 C35.5033613,12.5344538 36.012605,13.0789916 36.012605,13.7546218 C36.012605,14.4453782 35.5058824,14.989916 34.8579832,14.989916 C34.2378151,14.989916 33.7159664,14.4453782 33.7159664,13.7546218 C33.7159664,13.0789916 34.2378151,12.5344538 34.8579832,12.5344538 Z" id="Shape" fill="#338FFF"></path>
                <path d="M41.7529412,10.0764706 C42.3781513,10.0764706 42.9,10.6235294 42.9,11.2941176 C42.9,11.987395 42.3756303,12.5319328 41.7529412,12.5319328 C41.110084,12.5319328 40.6033613,11.987395 40.6033613,11.2941176 C40.6033613,10.6235294 41.110084,10.0764706 41.7529412,10.0764706 Z" id="Shape" fill="#338FFF"></path>
                <path d="M44.0344538,7.61848739 C44.6773109,7.61848739 45.1789916,8.16806723 45.1789916,8.83865546 C45.1789916,9.53193277 44.6773109,10.0764706 44.0344538,10.0764706 C43.4067227,10.0764706 42.9,9.53445378 42.9,8.83865546 C42.9,8.17058824 43.4067227,7.61848739 44.0344538,7.61848739 Z" id="Shape" fill="#338FFF"></path>
                <path d="M37.1596639,5.16302521 C37.802521,5.16302521 38.3092437,5.71260504 38.3092437,6.37815126 C38.3092437,7.07142857 37.802521,7.61848739 37.1596639,7.61848739 C36.5294118,7.61848739 36.010084,7.07142857 36.010084,6.37815126 C36.010084,5.71260504 36.5319328,5.16302521 37.1596639,5.16302521 Z" id="Shape" fill="#338FFF"></path>
                <path d="M46.3285714,59.2285714 C46.9689076,59.2285714 47.4781513,59.7806723 47.4781513,60.4487395 C47.4781513,61.1294118 46.9689076,61.6915966 46.3285714,61.6915966 C45.7058824,61.6915966 45.1789916,61.1294118 45.1789916,60.4487395 C45.1789916,59.7781513 45.7058824,59.2285714 46.3285714,59.2285714 Z" id="Shape" fill="#338FFF"></path>
                <path d="M50.9243697,54.3151261 C51.5445378,54.3151261 52.0714286,54.8672269 52.0714286,55.5378151 C52.0714286,56.2109244 51.5470588,56.7731092 50.9243697,56.7731092 C50.2764706,56.7731092 49.7722689,56.2109244 49.7722689,55.5378151 C49.7722689,54.8672269 50.2739496,54.3151261 50.9243697,54.3151261 Z" id="Shape" fill="#338FFF"></path>
                <path d="M48.6252101,51.8571429 C49.2655462,51.8571429 49.7747899,52.4067227 49.7747899,53.0823529 C49.7747899,53.7504202 49.2680672,54.312605 48.6252101,54.312605 C47.997479,54.312605 47.4781513,53.7504202 47.4781513,53.0823529 C47.4781513,52.4092437 47.997479,51.8571429 48.6252101,51.8571429 Z" id="Shape" fill="#338FFF"></path>
                <path d="M50.9243697,49.3915966 C51.5445378,49.3915966 52.0714286,49.9487395 52.0714286,50.6243697 C52.0714286,51.292437 51.5470588,51.8571429 50.9243697,51.8571429 C50.2764706,51.8571429 49.7722689,51.292437 49.7722689,50.6243697 C49.7722689,49.9487395 50.2739496,49.3915966 50.9243697,49.3915966 Z" id="Shape" fill="#338FFF"></path>
                <path d="M53.2159664,46.9285714 C53.8411765,46.9285714 54.3680672,47.4932773 54.3680672,48.1663866 C54.3680672,48.8394958 53.8411765,49.3915966 53.2159664,49.3915966 C52.5806723,49.3915966 52.0689076,48.8394958 52.0689076,48.1663866 C52.0689076,47.4932773 52.5781513,46.9285714 53.2159664,46.9285714 Z" id="Shape" fill="#338FFF"></path>
                <path d="M50.9243697,44.4731092 C51.5445378,44.4731092 52.0714286,45.0378151 52.0714286,45.7109244 C52.0714286,46.3815126 51.5470588,46.9285714 50.9243697,46.9285714 C50.2764706,46.9285714 49.7722689,46.3789916 49.7722689,45.7109244 C49.7722689,45.0378151 50.2739496,44.4731092 50.9243697,44.4731092 Z" id="Shape" fill="#338FFF"></path>
                <path d="M46.3285714,44.4731092 C46.9689076,44.4731092 47.4781513,45.0378151 47.4781513,45.7109244 C47.4781513,46.3815126 46.9689076,46.9285714 46.3285714,46.9285714 C45.7058824,46.9285714 45.1789916,46.3789916 45.1789916,45.7109244 C45.1789916,45.0378151 45.7058824,44.4731092 46.3285714,44.4731092 Z" id="Shape" fill="#338FFF"></path>
                <path d="M50.9243697,39.5571429 C51.5445378,39.5571429 52.0714286,40.1117647 52.0714286,40.797479 C52.0714286,41.4705882 51.5470588,42.012605 50.9243697,42.012605 C50.2764706,42.012605 49.7722689,41.4705882 49.7722689,40.797479 C49.7722689,40.1117647 50.2739496,39.5571429 50.9243697,39.5571429 Z" id="Shape" fill="#338FFF"></path>
                <path d="M55.505042,39.5571429 C56.1378151,39.5571429 56.6420168,40.1117647 56.6420168,40.797479 C56.6420168,41.4705882 56.1378151,42.012605 55.505042,42.012605 C54.8747899,42.012605 54.3680672,41.4705882 54.3680672,40.797479 C54.3680672,40.1117647 54.8747899,39.5571429 55.505042,39.5571429 Z" id="Shape" fill="#338FFF"></path>
                <path d="M46.3285714,39.5571429 C46.9689076,39.5571429 47.4781513,40.1117647 47.4781513,40.797479 C47.4781513,41.4705882 46.9689076,42.012605 46.3285714,42.012605 C45.7058824,42.012605 45.1789916,41.4705882 45.1789916,40.797479 C45.1789916,40.1117647 45.7058824,39.5571429 46.3285714,39.5571429 Z" id="Shape" fill="#338FFF"></path>
                <path d="M50.9243697,34.6411765 C51.5445378,34.6411765 52.0714286,35.1957983 52.0714286,35.8840336 C52.0714286,36.5621849 51.5470588,37.1016807 50.9243697,37.1016807 C50.2764706,37.1016807 49.7722689,36.5621849 49.7722689,35.8840336 C49.7722689,35.1957983 50.2739496,34.6411765 50.9243697,34.6411765 Z" id="Shape" fill="#338FFF"></path>
                <path d="M55.505042,34.6411765 C56.1378151,34.6411765 56.6420168,35.1957983 56.6420168,35.8840336 C56.6420168,36.5621849 56.1378151,37.1016807 55.505042,37.1016807 C54.8747899,37.1016807 54.3680672,36.5621849 54.3680672,35.8840336 C54.3680672,35.1957983 54.8747899,34.6411765 55.505042,34.6411765 Z" id="Shape" fill="#338FFF"></path>
                <path d="M48.6252101,32.1882353 C49.2655462,32.1882353 49.7747899,32.7352941 49.7747899,33.4260504 C49.7747899,34.0991597 49.2680672,34.6411765 48.6252101,34.6411765 C47.997479,34.6411765 47.4781513,34.0991597 47.4781513,33.4260504 C47.4781513,32.7352941 47.997479,32.1882353 48.6252101,32.1882353 Z" id="Shape" fill="#338FFF"></path>
                <path d="M50.9243697,29.7302521 C51.5445378,29.7302521 52.0714286,30.2773109 52.0714286,30.9680672 C52.0714286,31.6411765 51.5470588,32.1882353 50.9243697,32.1882353 C50.2764706,32.1882353 49.7722689,31.6411765 49.7722689,30.9680672 C49.7722689,30.2773109 50.2739496,29.7302521 50.9243697,29.7302521 Z" id="Shape" fill="#338FFF"></path>
                <path d="M53.2159664,27.2747899 C53.8411765,27.2747899 54.3680672,27.8218487 54.3680672,28.5151261 C54.3680672,29.1882353 53.8411765,29.7327731 53.2159664,29.7327731 C52.5806723,29.7327731 52.0689076,29.1882353 52.0689076,28.5151261 C52.0689076,27.8218487 52.5781513,27.2747899 53.2159664,27.2747899 Z" id="Shape" fill="#338FFF"></path>
                <path d="M48.6252101,27.2747899 C49.2655462,27.2747899 49.7747899,27.8218487 49.7747899,28.5151261 C49.7747899,29.1882353 49.2680672,29.7327731 48.6252101,29.7327731 C47.997479,29.7327731 47.4781513,29.1882353 47.4781513,28.5151261 C47.4781513,27.8218487 47.997479,27.2747899 48.6252101,27.2747899 Z" id="Shape" fill="#338FFF"></path>
                <path d="M50.9243697,24.8168067 C51.5445378,24.8168067 52.0714286,25.3613445 52.0714286,26.0521008 C52.0714286,26.7302521 51.5470588,27.2747899 50.9243697,27.2747899 C50.2764706,27.2747899 49.7722689,26.7302521 49.7722689,26.0521008 C49.7722689,25.3638655 50.2739496,24.8168067 50.9243697,24.8168067 Z" id="Shape" fill="#338FFF"></path>
                <path d="M46.3285714,24.8168067 C46.9689076,24.8168067 47.4781513,25.3613445 47.4781513,26.0521008 C47.4781513,26.7302521 46.9689076,27.2747899 46.3285714,27.2747899 C45.7058824,27.2747899 45.1789916,26.7302521 45.1789916,26.0521008 C45.1789916,25.3638655 45.7058824,24.8168067 46.3285714,24.8168067 Z" id="Shape" fill="#338FFF"></path>
                <path d="M53.2159664,22.3638655 C53.8411765,22.3638655 54.3680672,22.9084034 54.3680672,23.5941176 C54.3680672,24.2722689 53.8411765,24.8168067 53.2159664,24.8168067 C52.5806723,24.8168067 52.0689076,24.2697479 52.0689076,23.5941176 C52.0689076,22.9058824 52.5781513,22.3638655 53.2159664,22.3638655 Z" id="Shape" fill="#338FFF"></path>
                <ellipse id="Oval" fill="#338FFF" cx="55.505042" cy="21.1361345" rx="1.13697479" ry="1.22773109"></ellipse>
                <path d="M53.2159664,17.4504202 C53.8411765,17.4504202 54.3680672,17.992437 54.3680672,18.6655462 C54.3680672,19.3563025 53.8411765,19.9084034 53.2159664,19.9084034 C52.5806723,19.9084034 52.0689076,19.3563025 52.0689076,18.6655462 C52.0689076,17.994958 52.5781513,17.4504202 53.2159664,17.4504202 Z" id="Shape" fill="#338FFF"></path>
                <path d="M48.6252101,17.4504202 C49.2655462,17.4504202 49.7747899,17.992437 49.7747899,18.6655462 C49.7747899,19.3563025 49.2680672,19.9084034 48.6252101,19.9084034 C47.997479,19.9084034 47.4781513,19.3563025 47.4781513,18.6655462 C47.4781513,17.994958 47.997479,17.4504202 48.6252101,17.4504202 Z" id="Shape" fill="#338FFF"></path>
                <path d="M55.505042,14.989916 C56.1378151,14.989916 56.6420168,15.5344538 56.6420168,16.210084 C56.6420168,16.8983193 56.1378151,17.4504202 55.505042,17.4504202 C54.8747899,17.4504202 54.3680672,16.8983193 54.3680672,16.210084 C54.3680672,15.5344538 54.8747899,14.989916 55.505042,14.989916 Z" id="Shape" fill="#338FFF"></path>
                <path d="M46.3285714,14.989916 C46.9689076,14.989916 47.4781513,15.5344538 47.4781513,16.210084 C47.4781513,16.8983193 46.9689076,17.4504202 46.3285714,17.4504202 C45.7058824,17.4504202 45.1789916,16.8983193 45.1789916,16.210084 C45.1789916,15.5344538 45.7058824,14.989916 46.3285714,14.989916 Z" id="Shape" fill="#338FFF"></path>
                <path d="M48.6252101,12.5344538 C49.2655462,12.5344538 49.7747899,13.0789916 49.7747899,13.7546218 C49.7747899,14.4453782 49.2680672,14.989916 48.6252101,14.989916 C47.997479,14.989916 47.4781513,14.4453782 47.4781513,13.7546218 C47.4781513,13.0789916 47.997479,12.5344538 48.6252101,12.5344538 Z" id="Shape" fill="#338FFF"></path>
                <path d="M57.7915966,32.1882353 C58.4319328,32.1882353 58.9386555,32.7352941 58.9386555,33.4260504 C58.9386555,34.0991597 58.4319328,34.6411765 57.7915966,34.6411765 C57.1714286,34.6411765 56.6394958,34.0991597 56.6394958,33.4260504 C56.6420168,32.7352941 57.1714286,32.1882353 57.7915966,32.1882353 Z" id="Shape" fill="#338FFF"></path>
                <path d="M57.7915966,27.2747899 C58.4319328,27.2747899 58.9386555,27.8218487 58.9386555,28.5151261 C58.9386555,29.1882353 58.4319328,29.7327731 57.7915966,29.7327731 C57.1714286,29.7327731 56.6394958,29.1882353 56.6394958,28.5151261 C56.6420168,27.8218487 57.1714286,27.2747899 57.7915966,27.2747899 Z" id="Shape" fill="#338FFF"></path>
                <path d="M23.394958,64.1470588 C24.0378151,64.1470588 24.5445378,64.6941176 24.5445378,65.3621849 C24.5445378,66.0605042 24.0403361,66.602521 23.394958,66.602521 C22.7722689,66.602521 22.2453782,66.0605042 22.2453782,65.3621849 C22.2478992,64.6941176 22.7747899,64.1470588 23.394958,64.1470588 Z" id="Shape" fill="#338FFF"></path>
                <path d="M27.9857143,64.1470588 C28.6134454,64.1470588 29.1403361,64.6941176 29.1403361,65.3621849 C29.1403361,66.0605042 28.6134454,66.602521 27.9857143,66.602521 C27.3504202,66.602521 26.8411765,66.0605042 26.8411765,65.3621849 C26.8411765,64.6941176 27.3504202,64.1470588 27.9857143,64.1470588 Z" id="Shape" fill="#338FFF"></path>
                <path d="M25.6941176,61.6890756 C26.3319328,61.6890756 26.8411765,62.2361345 26.8411765,62.9067227 C26.8411765,63.589916 26.3319328,64.1470588 25.6941176,64.1470588 C25.0563025,64.1470588 24.5420168,63.592437 24.5420168,62.9067227 C24.5445378,62.2361345 25.0563025,61.6890756 25.6941176,61.6890756 Z" id="Shape" fill="#338FFF"></path>
                <path d="M21.1008403,61.6890756 C21.7411765,61.6890756 22.2478992,62.2361345 22.2478992,62.9067227 C22.2478992,63.589916 21.7411765,64.1470588 21.1008403,64.1470588 C20.4756303,64.1470588 19.9638655,63.592437 19.9638655,62.9067227 C19.9638655,62.2361345 20.4756303,61.6890756 21.1008403,61.6890756 Z" id="Shape" fill="#338FFF"></path>
                <path d="M21.1008403,56.7731092 C21.7411765,56.7731092 22.2478992,57.3226891 22.2478992,57.9907563 C22.2478992,58.6663866 21.7411765,59.2285714 21.1008403,59.2285714 C20.4756303,59.2285714 19.9638655,58.6663866 19.9638655,57.9907563 C19.9638655,57.3226891 20.4756303,56.7731092 21.1008403,56.7731092 Z" id="Shape" fill="#338FFF"></path>
                <path d="M30.289916,56.7731092 C30.912605,56.7731092 31.4319328,57.3226891 31.4319328,57.9907563 C31.4319328,58.6663866 30.912605,59.2285714 30.289916,59.2285714 C29.6420168,59.2285714 29.1403361,58.6663866 29.1403361,57.9907563 C29.1403361,57.3226891 29.6420168,56.7731092 30.289916,56.7731092 Z" id="Shape" fill="#338FFF"></path>
                <path d="M27.9857143,54.3151261 C28.6134454,54.3151261 29.1403361,54.8672269 29.1403361,55.5378151 C29.1403361,56.2109244 28.6134454,56.7731092 27.9857143,56.7731092 C27.3504202,56.7731092 26.8411765,56.2109244 26.8411765,55.5378151 C26.8411765,54.8672269 27.3504202,54.3151261 27.9857143,54.3151261 Z" id="Shape" fill="#338FFF"></path>
                <path d="M25.6941176,51.8571429 C26.3319328,51.8571429 26.8411765,52.4067227 26.8411765,53.0823529 C26.8411765,53.7504202 26.3319328,54.312605 25.6941176,54.312605 C25.0563025,54.312605 24.5420168,53.7504202 24.5420168,53.0823529 C24.5445378,52.4092437 25.0563025,51.8571429 25.6941176,51.8571429 Z" id="Shape" fill="#338FFF"></path>
                <path d="M21.1008403,51.8571429 C21.7411765,51.8571429 22.2478992,52.4067227 22.2478992,53.0823529 C22.2478992,53.7504202 21.7411765,54.312605 21.1008403,54.312605 C20.4756303,54.312605 19.9638655,53.7504202 19.9638655,53.0823529 C19.9638655,52.4092437 20.4756303,51.8571429 21.1008403,51.8571429 Z" id="Shape" fill="#338FFF"></path>
                <path d="M23.394958,49.3915966 C24.0378151,49.3915966 24.5445378,49.9487395 24.5445378,50.6243697 C24.5445378,51.292437 24.0403361,51.8571429 23.394958,51.8571429 C22.7722689,51.8571429 22.2453782,51.292437 22.2453782,50.6243697 C22.2478992,49.9487395 22.7747899,49.3915966 23.394958,49.3915966 Z" id="Shape" fill="#338FFF"></path>
                <path d="M30.289916,46.9285714 C30.912605,46.9285714 31.4319328,47.4932773 31.4319328,48.1663866 C31.4319328,48.8394958 30.912605,49.3915966 30.289916,49.3915966 C29.6420168,49.3915966 29.1403361,48.8394958 29.1403361,48.1663866 C29.1403361,47.4932773 29.6420168,46.9285714 30.289916,46.9285714 Z" id="Shape" fill="#338FFF"></path>
                <path d="M23.394958,44.4731092 C24.0378151,44.4731092 24.5445378,45.0378151 24.5445378,45.7109244 C24.5445378,46.3815126 24.0403361,46.9285714 23.394958,46.9285714 C22.7722689,46.9285714 22.2453782,46.3789916 22.2453782,45.7109244 C22.2478992,45.0378151 22.7747899,44.4731092 23.394958,44.4731092 Z" id="Shape" fill="#338FFF"></path>
                <path d="M27.9857143,44.4731092 C28.6134454,44.4731092 29.1403361,45.0378151 29.1403361,45.7109244 C29.1403361,46.3815126 28.6134454,46.9285714 27.9857143,46.9285714 C27.3504202,46.9285714 26.8411765,46.3789916 26.8411765,45.7109244 C26.8411765,45.0378151 27.3504202,44.4731092 27.9857143,44.4731092 Z" id="Shape" fill="#338FFF"></path>
                <path d="M27.9857143,39.5571429 C28.6134454,39.5571429 29.1403361,40.1117647 29.1403361,40.797479 C29.1403361,41.4705882 28.6134454,42.012605 27.9857143,42.012605 C27.3504202,42.012605 26.8411765,41.4705882 26.8411765,40.797479 C26.8411765,40.1117647 27.3504202,39.5571429 27.9857143,39.5571429 Z" id="Shape" fill="#338FFF"></path>
                <path d="M25.6941176,37.0991597 C26.3319328,37.0991597 26.8411765,37.6537815 26.8411765,38.3394958 C26.8411765,39.0151261 26.3319328,39.5571429 25.6941176,39.5571429 C25.0563025,39.5571429 24.5420168,39.0151261 24.5420168,38.3394958 C24.5445378,37.6537815 25.0563025,37.0991597 25.6941176,37.0991597 Z" id="Shape" fill="#338FFF"></path>
                <path d="M21.1008403,37.0991597 C21.7411765,37.0991597 22.2478992,37.6537815 22.2478992,38.3394958 C22.2478992,39.0151261 21.7411765,39.5571429 21.1008403,39.5571429 C20.4756303,39.5571429 19.9638655,39.0151261 19.9638655,38.3394958 C19.9638655,37.6537815 20.4756303,37.0991597 21.1008403,37.0991597 Z" id="Shape" fill="#338FFF"></path>
                <path d="M23.394958,34.6411765 C24.0378151,34.6411765 24.5445378,35.1957983 24.5445378,35.8840336 C24.5445378,36.5621849 24.0403361,37.1016807 23.394958,37.1016807 C22.7722689,37.1016807 22.2453782,36.5621849 22.2453782,35.8840336 C22.2478992,35.1957983 22.7747899,34.6411765 23.394958,34.6411765 Z" id="Shape" fill="#338FFF"></path>
                <path d="M25.6941176,32.1882353 C26.3319328,32.1882353 26.8411765,32.7352941 26.8411765,33.4260504 C26.8411765,34.0991597 26.3319328,34.6411765 25.6941176,34.6411765 C25.0563025,34.6411765 24.5420168,34.0991597 24.5420168,33.4260504 C24.5445378,32.7352941 25.0563025,32.1882353 25.6941176,32.1882353 Z" id="Shape" fill="#338FFF"></path>
                <path d="M21.1008403,32.1882353 C21.7411765,32.1882353 22.2478992,32.7352941 22.2478992,33.4260504 C22.2478992,34.0991597 21.7411765,34.6411765 21.1008403,34.6411765 C20.4756303,34.6411765 19.9638655,34.0991597 19.9638655,33.4260504 C19.9638655,32.7352941 20.4756303,32.1882353 21.1008403,32.1882353 Z" id="Shape" fill="#338FFF"></path>
                <path d="M30.289916,32.1882353 C30.912605,32.1882353 31.4319328,32.7352941 31.4319328,33.4260504 C31.4319328,34.0991597 30.912605,34.6411765 30.289916,34.6411765 C29.6420168,34.6411765 29.1403361,34.0991597 29.1403361,33.4260504 C29.1403361,32.7352941 29.6420168,32.1882353 30.289916,32.1882353 Z" id="Shape" fill="#338FFF"></path>
                <path d="M27.9857143,29.7302521 C28.6134454,29.7302521 29.1403361,30.2773109 29.1403361,30.9680672 C29.1403361,31.6411765 28.6134454,32.1882353 27.9857143,32.1882353 C27.3504202,32.1882353 26.8411765,31.6411765 26.8411765,30.9680672 C26.8411765,30.2773109 27.3504202,29.7302521 27.9857143,29.7302521 Z" id="Shape" fill="#338FFF"></path>
                <path d="M25.6941176,27.2747899 C26.3319328,27.2747899 26.8411765,27.8218487 26.8411765,28.5151261 C26.8411765,29.1882353 26.3319328,29.7327731 25.6941176,29.7327731 C25.0563025,29.7327731 24.5420168,29.1882353 24.5420168,28.5151261 C24.5445378,27.8218487 25.0563025,27.2747899 25.6941176,27.2747899 Z" id="Shape" fill="#338FFF"></path>
                <path d="M23.394958,24.8168067 C24.0378151,24.8168067 24.5445378,25.3613445 24.5445378,26.0521008 C24.5445378,26.7302521 24.0403361,27.2747899 23.394958,27.2747899 C22.7722689,27.2747899 22.2453782,26.7302521 22.2453782,26.0521008 C22.2478992,25.3638655 22.7747899,24.8168067 23.394958,24.8168067 Z" id="Shape" fill="#338FFF"></path>
                <path d="M27.9857143,24.8168067 C28.6134454,24.8168067 29.1403361,25.3613445 29.1403361,26.0521008 C29.1403361,26.7302521 28.6134454,27.2747899 27.9857143,27.2747899 C27.3504202,27.2747899 26.8411765,26.7302521 26.8411765,26.0521008 C26.8411765,25.3638655 27.3504202,24.8168067 27.9857143,24.8168067 Z" id="Shape" fill="#338FFF"></path>
                <path d="M23.394958,19.9084034 C24.0378151,19.9084034 24.5445378,20.4504202 24.5445378,21.1310924 C24.5445378,21.8117647 24.0403361,22.3638655 23.394958,22.3638655 C22.7722689,22.3638655 22.2453782,21.8117647 22.2453782,21.1310924 C22.2478992,20.4504202 22.7747899,19.9084034 23.394958,19.9084034 Z" id="Shape" fill="#338FFF"></path>
                <path d="M27.9857143,19.9084034 C28.6134454,19.9084034 29.1403361,20.4504202 29.1403361,21.1310924 C29.1403361,21.8117647 28.6134454,22.3638655 27.9857143,22.3638655 C27.3504202,22.3638655 26.8411765,21.8117647 26.8411765,21.1310924 C26.8411765,20.4504202 27.3504202,19.9084034 27.9857143,19.9084034 Z" id="Shape" fill="#338FFF"></path>
                <path d="M21.1008403,17.4504202 C21.7411765,17.4504202 22.2478992,17.992437 22.2478992,18.6655462 C22.2478992,19.3563025 21.7411765,19.9084034 21.1008403,19.9084034 C20.4756303,19.9084034 19.9638655,19.3563025 19.9638655,18.6655462 C19.9638655,17.994958 20.4756303,17.4504202 21.1008403,17.4504202 Z" id="Shape" fill="#338FFF"></path>
                <path d="M23.394958,14.989916 C24.0378151,14.989916 24.5445378,15.5344538 24.5445378,16.210084 C24.5445378,16.8983193 24.0403361,17.4504202 23.394958,17.4504202 C22.7722689,17.4504202 22.2453782,16.8983193 22.2453782,16.210084 C22.2478992,15.5344538 22.7747899,14.989916 23.394958,14.989916 Z" id="Shape" fill="#338FFF"></path>
                <path d="M27.9857143,14.989916 C28.6134454,14.989916 29.1403361,15.5344538 29.1403361,16.210084 C29.1403361,16.8983193 28.6134454,17.4504202 27.9857143,17.4504202 C27.3504202,17.4504202 26.8411765,16.8983193 26.8411765,16.210084 C26.8411765,15.5344538 27.3504202,14.989916 27.9857143,14.989916 Z" id="Shape" fill="#338FFF"></path>
                <path d="M23.394958,10.0764706 C24.0378151,10.0764706 24.5445378,10.6235294 24.5445378,11.2941176 C24.5445378,11.987395 24.0403361,12.5319328 23.394958,12.5319328 C22.7722689,12.5319328 22.2453782,11.987395 22.2453782,11.2941176 C22.2478992,10.6235294 22.7747899,10.0764706 23.394958,10.0764706 Z" id="Shape" fill="#338FFF"></path>
                <path d="M21.1008403,7.61848739 C21.7411765,7.61848739 22.2478992,8.16806723 22.2478992,8.83865546 C22.2478992,9.53193277 21.7411765,10.0764706 21.1008403,10.0764706 C20.4756303,10.0764706 19.9638655,9.53445378 19.9638655,8.83865546 C19.9638655,8.17058824 20.4756303,7.61848739 21.1008403,7.61848739 Z" id="Shape" fill="#338FFF"></path>
                <path d="M30.289916,7.61848739 C30.912605,7.61848739 31.4319328,8.16806723 31.4319328,8.83865546 C31.4319328,9.53193277 30.912605,10.0764706 30.289916,10.0764706 C29.6420168,10.0764706 29.1403361,9.53445378 29.1403361,8.83865546 C29.1403361,8.17058824 29.6420168,7.61848739 30.289916,7.61848739 Z" id="Shape" fill="#338FFF"></path>
                <path d="M18.8218487,59.2285714 C19.4445378,59.2285714 19.9638655,59.7806723 19.9638655,60.4487395 C19.9638655,61.1294118 19.4420168,61.6915966 18.8218487,61.6915966 C18.1789916,61.6915966 17.6697479,61.1294118 17.6697479,60.4487395 C17.6697479,59.7781513 18.1789916,59.2285714 18.8218487,59.2285714 Z" id="Shape" fill="#338FFF"></path>
                <path d="M14.2260504,54.3151261 C14.8613445,54.3151261 15.3806723,54.8672269 15.3806723,55.5378151 C15.3806723,56.2109244 14.8638655,56.7731092 14.2260504,56.7731092 C13.5882353,56.7731092 13.0764706,56.2109244 13.0764706,55.5378151 C13.0764706,54.8672269 13.5907563,54.3151261 14.2260504,54.3151261 Z" id="Shape" fill="#338FFF"></path>
                <path d="M16.5226891,51.8571429 C17.1478992,51.8571429 17.6697479,52.4067227 17.6697479,53.0823529 C17.6697479,53.7504202 17.1453782,54.312605 16.5226891,54.312605 C15.8798319,54.312605 15.3781513,53.7504202 15.3781513,53.0823529 C15.3806723,52.4092437 15.8798319,51.8571429 16.5226891,51.8571429 Z" id="Shape" fill="#338FFF"></path>
                <path d="M14.2260504,49.3915966 C14.8613445,49.3915966 15.3806723,49.9487395 15.3806723,50.6243697 C15.3806723,51.292437 14.8638655,51.8571429 14.2260504,51.8571429 C13.5882353,51.8571429 13.0764706,51.292437 13.0764706,50.6243697 C13.0764706,49.9487395 13.5907563,49.3915966 14.2260504,49.3915966 Z" id="Shape" fill="#338FFF"></path>
                <path d="M11.9319328,46.9285714 C12.5722689,46.9285714 13.0789916,47.4932773 13.0789916,48.1663866 C13.0789916,48.8394958 12.5747899,49.3915966 11.9319328,49.3915966 C11.3092437,49.3915966 10.7823529,48.8394958 10.7823529,48.1663866 C10.7823529,47.4932773 11.3092437,46.9285714 11.9319328,46.9285714 Z" id="Shape" fill="#338FFF"></path>
                <path d="M14.2260504,44.4731092 C14.8613445,44.4731092 15.3806723,45.0378151 15.3806723,45.7109244 C15.3806723,46.3815126 14.8638655,46.9285714 14.2260504,46.9285714 C13.5882353,46.9285714 13.0764706,46.3789916 13.0764706,45.7109244 C13.0764706,45.0378151 13.5907563,44.4731092 14.2260504,44.4731092 Z" id="Shape" fill="#338FFF"></path>
                <path d="M18.8218487,44.4731092 C19.4445378,44.4731092 19.9638655,45.0378151 19.9638655,45.7109244 C19.9638655,46.3815126 19.4420168,46.9285714 18.8218487,46.9285714 C18.1789916,46.9285714 17.6697479,46.3789916 17.6697479,45.7109244 C17.6697479,45.0378151 18.1789916,44.4731092 18.8218487,44.4731092 Z" id="Shape" fill="#338FFF"></path>
                <path d="M14.2260504,39.5571429 C14.8613445,39.5571429 15.3806723,40.1117647 15.3806723,40.797479 C15.3806723,41.4705882 14.8638655,42.012605 14.2260504,42.012605 C13.5882353,42.012605 13.0764706,41.4705882 13.0764706,40.797479 C13.0764706,40.1117647 13.5907563,39.5571429 14.2260504,39.5571429 Z" id="Shape" fill="#338FFF"></path>
                <path d="M9.63529412,39.5571429 C10.2756303,39.5571429 10.7823529,40.1117647 10.7823529,40.797479 C10.7823529,41.4705882 10.2756303,42.012605 9.63529412,42.012605 C9.01260504,42.012605 8.4907563,41.4705882 8.4907563,40.797479 C8.4907563,40.1117647 9.01260504,39.5571429 9.63529412,39.5571429 Z" id="Shape" fill="#338FFF"></path>
                <path d="M18.8218487,39.5571429 C19.4445378,39.5571429 19.9638655,40.1117647 19.9638655,40.797479 C19.9638655,41.4705882 19.4420168,42.012605 18.8218487,42.012605 C18.1789916,42.012605 17.6697479,41.4705882 17.6697479,40.797479 C17.6697479,40.1117647 18.1789916,39.5571429 18.8218487,39.5571429 Z" id="Shape" fill="#338FFF"></path>
                <path d="M14.2260504,34.6411765 C14.8613445,34.6411765 15.3806723,35.1957983 15.3806723,35.8840336 C15.3806723,36.5621849 14.8638655,37.1016807 14.2260504,37.1016807 C13.5882353,37.1016807 13.0764706,36.5621849 13.0764706,35.8840336 C13.0764706,35.1957983 13.5907563,34.6411765 14.2260504,34.6411765 Z" id="Shape" fill="#338FFF"></path>
                <path d="M16.5226891,32.1882353 C17.1478992,32.1882353 17.6697479,32.7352941 17.6697479,33.4260504 C17.6697479,34.0991597 17.1453782,34.6411765 16.5226891,34.6411765 C15.8798319,34.6411765 15.3781513,34.0991597 15.3781513,33.4260504 C15.3806723,32.7352941 15.8798319,32.1882353 16.5226891,32.1882353 Z" id="Shape" fill="#338FFF"></path>
                <path d="M14.2260504,29.7302521 C14.8613445,29.7302521 15.3806723,30.2773109 15.3806723,30.9680672 C15.3806723,31.6411765 14.8638655,32.1882353 14.2260504,32.1882353 C13.5882353,32.1882353 13.0764706,31.6411765 13.0764706,30.9680672 C13.0764706,30.2773109 13.5907563,29.7302521 14.2260504,29.7302521 Z" id="Shape" fill="#338FFF"></path>
                <path d="M11.9319328,27.2747899 C12.5722689,27.2747899 13.0789916,27.8218487 13.0789916,28.5151261 C13.0789916,29.1882353 12.5747899,29.7327731 11.9319328,29.7327731 C11.3092437,29.7327731 10.7823529,29.1882353 10.7823529,28.5151261 C10.7823529,27.8218487 11.3092437,27.2747899 11.9319328,27.2747899 Z" id="Shape" fill="#338FFF"></path>
                <path d="M16.5226891,27.2747899 C17.1478992,27.2747899 17.6697479,27.8218487 17.6697479,28.5151261 C17.6697479,29.1882353 17.1453782,29.7327731 16.5226891,29.7327731 C15.8798319,29.7327731 15.3781513,29.1882353 15.3781513,28.5151261 C15.3806723,27.8218487 15.8798319,27.2747899 16.5226891,27.2747899 Z" id="Shape" fill="#338FFF"></path>
                <path d="M14.2260504,24.8168067 C14.8613445,24.8168067 15.3806723,25.3613445 15.3806723,26.0521008 C15.3806723,26.7302521 14.8638655,27.2747899 14.2260504,27.2747899 C13.5882353,27.2747899 13.0764706,26.7302521 13.0764706,26.0521008 C13.0764706,25.3638655 13.5907563,24.8168067 14.2260504,24.8168067 Z" id="Shape" fill="#338FFF"></path>
                <path d="M18.8218487,24.8168067 C19.4445378,24.8168067 19.9638655,25.3613445 19.9638655,26.0521008 C19.9638655,26.7302521 19.4420168,27.2747899 18.8218487,27.2747899 C18.1789916,27.2747899 17.6697479,26.7302521 17.6697479,26.0521008 C17.6697479,25.3638655 18.1789916,24.8168067 18.8218487,24.8168067 Z" id="Shape" fill="#338FFF"></path>
                <path d="M11.9319328,22.3638655 C12.5722689,22.3638655 13.0789916,22.9084034 13.0789916,23.5941176 C13.0789916,24.2722689 12.5747899,24.8168067 11.9319328,24.8168067 C11.3092437,24.8168067 10.7823529,24.2697479 10.7823529,23.5941176 C10.7823529,22.9058824 11.3092437,22.3638655 11.9319328,22.3638655 Z" id="Shape" fill="#338FFF"></path>
                <path d="M9.63529412,19.9084034 C10.2756303,19.9084034 10.7823529,20.4504202 10.7823529,21.1310924 C10.7823529,21.8117647 10.2756303,22.3638655 9.63529412,22.3638655 C9.01260504,22.3638655 8.4907563,21.8117647 8.4907563,21.1310924 C8.4907563,20.4504202 9.01260504,19.9084034 9.63529412,19.9084034 Z" id="Shape" fill="#338FFF"></path>
                <path d="M11.9319328,17.4504202 C12.5722689,17.4504202 13.0789916,17.992437 13.0789916,18.6655462 C13.0789916,19.3563025 12.5747899,19.9084034 11.9319328,19.9084034 C11.3092437,19.9084034 10.7823529,19.3563025 10.7823529,18.6655462 C10.7823529,17.994958 11.3092437,17.4504202 11.9319328,17.4504202 Z" id="Shape" fill="#338FFF"></path>
                <path d="M16.5226891,17.4504202 C17.1478992,17.4504202 17.6697479,17.992437 17.6697479,18.6655462 C17.6697479,19.3563025 17.1453782,19.9084034 16.5226891,19.9084034 C15.8798319,19.9084034 15.3781513,19.3563025 15.3781513,18.6655462 C15.3806723,17.994958 15.8798319,17.4504202 16.5226891,17.4504202 Z" id="Shape" fill="#338FFF"></path>
                <path d="M9.63529412,14.989916 C10.2756303,14.989916 10.7823529,15.5344538 10.7823529,16.210084 C10.7823529,16.8983193 10.2756303,17.4504202 9.63529412,17.4504202 C9.01260504,17.4504202 8.4907563,16.8983193 8.4907563,16.210084 C8.4907563,15.5344538 9.01260504,14.989916 9.63529412,14.989916 Z" id="Shape" fill="#338FFF"></path>
                <path d="M18.8218487,14.989916 C19.4445378,14.989916 19.9638655,15.5344538 19.9638655,16.210084 C19.9638655,16.8983193 19.4420168,17.4504202 18.8218487,17.4504202 C18.1789916,17.4504202 17.6697479,16.8983193 17.6697479,16.210084 C17.6697479,15.5344538 18.1789916,14.989916 18.8218487,14.989916 Z" id="Shape" fill="#338FFF"></path>
                <path d="M16.5226891,12.5344538 C17.1478992,12.5344538 17.6697479,13.0789916 17.6697479,13.7546218 C17.6697479,14.4453782 17.1453782,14.989916 16.5226891,14.989916 C15.8798319,14.989916 15.3781513,14.4453782 15.3781513,13.7546218 C15.3806723,13.0789916 15.8798319,12.5344538 16.5226891,12.5344538 Z" id="Shape" fill="#338FFF"></path>
                <path d="M7.35882353,32.1882353 C7.9789916,32.1882353 8.4907563,32.7352941 8.4907563,33.4260504 C8.4907563,34.0991597 7.9789916,34.6411765 7.35882353,34.6411765 C6.71344538,34.6411765 6.20672269,34.0991597 6.20672269,33.4260504 C6.20672269,32.7352941 6.71344538,32.1882353 7.35882353,32.1882353 Z" id="Shape" fill="#338FFF"></path>
                <path d="M7.35882353,27.2747899 C7.9789916,27.2747899 8.4907563,27.8218487 8.4907563,28.5151261 C8.4907563,29.1882353 7.9789916,29.7327731 7.35882353,29.7327731 C6.71344538,29.7327731 6.20672269,29.1882353 6.20672269,28.5151261 C6.20672269,27.8218487 6.71344538,27.2747899 7.35882353,27.2747899 Z" id="Shape" fill="#338FFF"></path>
                <path d="M61.8756303,28.7722689 C61.0058824,27.289916 60.4915966,24.0756303 60.605042,22.1369748 C60.8697479,17.5689076 58.6210084,13.0462185 55.1142857,11.1277311 C54.4361345,10.7647059 53.8411765,10.5731092 53.3067227,10.4042017 C52.3941176,10.1168067 52.0058824,9.99579832 51.6605042,9.23697479 C50.1882353,5.93697479 48.5672269,4.78739496 45.4487395,4.78739496 C44.994958,4.78739496 44.4957983,4.81260504 43.9285714,4.85294118 C43.6134454,4.85294118 43.1092437,4.27815126 42.6201681,3.73109244 C41.7731092,2.74285714 40.6386555,1.44453782 38.8411765,1.2302521 L38.2689076,1.15966387 C36.3453782,1.15966387 34.4747899,1.77731092 33.1512605,2.85630252 C32.8487395,3.09579832 32.4781513,3.30504202 31.9966387,2.86638655 C30.9831933,1.90336134 29.3470588,0.877310924 27.8394958,0.877310924 C27.3226891,0.877310924 26.8411765,0.995798319 26.4302521,1.25546218 C24.6378151,1.62857143 23.5008403,2.85378151 22.6487395,3.73613445 C22.0865546,4.34369748 21.612605,4.85294118 21.1915966,4.85294118 L21.1915966,4.85294118 C20.6546218,4.81260504 20.1529412,4.78739496 19.6890756,4.78739496 C16.5831933,4.78739496 14.9672269,5.95210084 13.489916,9.23697479 C13.1621849,9.99579832 12.7638655,10.1142857 11.8588235,10.4042017 C11.3117647,10.5579832 10.7092437,10.7647059 10.0386555,11.1277311 C6.5394958,13.0436975 4.28067227,17.5689076 4.5302521,22.1369748 C4.65882353,24.0781513 4.14453782,27.289916 3.25966387,28.7722689 C1.08151261,32.4226891 1.08151261,37.507563 3.25966387,41.1428571 C3.6,41.710084 4.09915966,42.3680672 4.66638655,43.1369748 C5.69243697,44.4756303 7.41428571,46.7621849 7.35882353,47.7957983 C7.0789916,52.3815126 9.69831933,57.6579832 13.1647059,59.5815126 C13.802521,59.9344538 13.9008403,60.2647059 14.1428571,61.3260504 C14.2663866,61.9033613 14.4403361,62.6243697 14.7756303,63.4235294 C15.7109244,65.5109244 17.1983193,66.1159664 18.2798319,66.5596639 C19.3739496,67.0058824 19.807563,67.1848739 19.9638655,68.4428571 C20.4,71.9168067 22.3260504,73.9890756 25.0941176,73.9890756 C27.5647059,73.9890756 30.2319328,72.2016807 31.8781513,69.4336134 C32.097479,69.1033613 32.4226891,69.0756303 32.5638655,69.0756303 C32.702521,69.0756303 33.0252101,69.1033613 33.2420168,69.4336134 C34.9008403,72.2016807 37.5680672,73.9890756 40.0462185,73.9890756 C42.1764706,73.9890756 44.6445378,72.5268908 45.1638655,68.4428571 C45.3252101,67.1823529 45.7739496,67.0058824 46.8554622,66.5596639 C47.9243697,66.1159664 49.4117647,65.5109244 50.3596639,63.4235294 C50.689916,62.6420168 50.8663866,61.9184874 50.989916,61.3260504 C51.2470588,60.2647059 51.3428571,59.9344538 51.9630252,59.5815126 C55.4344538,57.6756303 58.0512605,52.3815126 57.7789916,47.7957983 C57.7310924,46.7621849 59.4453782,44.4756303 60.4588235,43.1369748 C61.0260504,42.3680672 61.5226891,41.712605 61.8731092,41.1428571 C64.0714286,37.507563 64.0714286,32.407563 61.8756303,28.7722689 Z M61.189916,35.6546218 C61.0865546,35.089916 60.6378151,34.6411765 60.0857143,34.6411765 C59.4680672,34.6411765 58.9386555,35.1983193 58.9386555,35.8840336 C58.9386555,36.5571429 59.4680672,37.1016807 60.0857143,37.1016807 C60.5521008,37.1016807 60.9478992,36.8042017 61.1369748,36.3806723 C60.9731092,37.510084 60.610084,38.5915966 60.0705882,39.5596639 C59.4680672,39.5722689 58.9361345,40.1142857 58.9361345,40.8 C58.9361345,40.9159664 58.9789916,41.0369748 59.0142857,41.1428571 C58.8983193,41.2789916 58.8,41.4252101 58.6890756,41.5764706 C58.5554622,41.7680672 58.4016807,41.9495798 58.2655462,42.1436975 C58.1193277,42.0731092 57.9680672,42.0302521 57.7890756,42.0302521 C57.1739496,42.0302521 56.6369748,42.5773109 56.6369748,43.2705882 C56.6369748,43.5630252 56.7705882,43.8327731 56.9168067,44.0268908 C56.7302521,44.3394958 56.5436975,44.6470588 56.3621849,44.9571429 C56.1731092,44.6773109 55.8579832,44.4831933 55.497479,44.4831933 C54.8546218,44.4831933 54.3504202,45.0403361 54.3504202,45.7285714 C54.3504202,46.3915966 54.8546218,46.9436975 55.497479,46.9436975 C55.5151261,46.9436975 55.5579832,46.9260504 55.5932773,46.9260504 C55.5151261,47.2663866 55.4672269,47.6142857 55.497479,47.9369748 C55.5,48.4033613 55.497479,48.9176471 55.4420168,49.4016807 C54.8319328,49.4268908 54.3504202,49.9689076 54.3504202,50.6243697 C54.3504202,51.0957983 54.592437,51.4789916 54.9428571,51.7033613 C54.7714286,52.2882353 54.5445378,52.8680672 54.2672269,53.4302521 C54.312605,53.3016807 54.3504202,53.2008403 54.3504202,53.0823529 C54.3504202,52.4092437 53.8210084,51.8571429 53.1983193,51.8571429 C52.5630252,51.8571429 52.0462185,52.4092437 52.0462185,53.0823529 C52.0462185,53.7478992 52.5605042,54.312605 53.1983193,54.312605 C53.4983193,54.312605 53.7756303,54.1663866 53.9647059,53.9672269 C53.1630252,55.4722689 52.1016807,56.7302521 50.9042017,57.3680672 C50.3546218,57.6806723 49.9714286,58.0487395 49.6840336,58.4218487 C49.7092437,58.2857143 49.7521008,58.1369748 49.7521008,57.9882353 C49.7521008,57.3226891 49.2428571,56.7705882 48.602521,56.7705882 C47.9823529,56.7705882 47.4579832,57.3226891 47.4579832,57.9882353 C47.4579832,58.6638655 47.9823529,59.2260504 48.602521,59.2260504 C48.887395,59.2260504 49.1495798,59.1 49.3563025,58.9058824 C49.0260504,59.5134454 48.8747899,60.1260504 48.7563025,60.7310924 C48.7008403,61.0537815 48.594958,61.3764706 48.5092437,61.7067227 C47.9193277,61.7672269 47.4705882,62.2815126 47.4705882,62.9067227 C47.4705882,63.0781513 47.5084034,63.2445378 47.5689076,63.3907563 C47.1831933,63.7361345 46.7470588,63.9529412 46.2630252,64.1571429 C46.0109244,64.1722689 45.8092437,64.2630252 45.6201681,64.4117647 C44.6647059,64.8302521 43.5680672,65.4756303 43.0588235,67.1798319 C42.9529412,67.3613445 42.8823529,67.5806723 42.8823529,67.802521 C42.8823529,67.8756303 42.892437,67.9310924 42.897479,67.9663866 C42.897479,68.0092437 42.892437,68.0420168 42.892437,68.0747899 C42.8142857,68.5840336 42.7210084,69.0428571 42.5722689,69.4411765 C42.3504202,69.2067227 42.0504202,69.0428571 41.7327731,69.0428571 C41.097479,69.0428571 40.5857143,69.594958 40.5857143,70.2630252 C40.5857143,70.6915966 40.7848739,71.0445378 41.097479,71.2739496 C40.7773109,71.4201681 40.4243697,71.5008403 40.0285714,71.5008403 C39.3705882,71.5008403 38.712605,71.3117647 38.0697479,70.9663866 C38.1907563,70.7621849 38.2865546,70.5352941 38.2865546,70.2605042 C38.2865546,69.592437 37.7823529,69.0403361 37.1420168,69.0403361 C36.7789916,69.0403361 36.4563025,69.2470588 36.2470588,69.5344538 C35.8436975,69.0983193 35.4806723,68.6142857 35.1554622,68.0798319 C34.5957983,67.1470588 33.6252101,66.5823529 32.5613445,66.5823529 C32.0218487,66.5823529 31.5277311,66.7159664 31.0915966,66.9731092 C30.8798319,66.7462185 30.5773109,66.597479 30.2722689,66.597479 C29.6268908,66.597479 29.1252101,67.1445378 29.1252101,67.8151261 C29.1252101,68.1932773 29.2840336,68.5134454 29.5184874,68.7277311 C28.2957983,70.4042017 26.5890756,71.5109244 25.0890756,71.5109244 C24.7033613,71.5109244 24.3453782,71.4252101 24.0176471,71.2689076 C24.3176471,71.0521008 24.5268908,70.6865546 24.5268908,70.2705882 C24.5268908,69.6 24.0176471,69.0529412 23.3747899,69.0529412 C23.0571429,69.0529412 22.7571429,69.2168067 22.5403361,69.4537815 C22.4067227,69.0529412 22.2957983,68.5966387 22.2252101,68.0773109 C22.2252101,68.0470588 22.2252101,68.0218487 22.212605,67.9739496 C22.2252101,67.9260504 22.2302521,67.8705882 22.2302521,67.8151261 C22.2302521,67.5756303 22.1571429,67.3588235 22.0512605,67.1848739 C21.5571429,65.4680672 20.4529412,64.8403361 19.489916,64.4168067 C19.3109244,64.2655462 19.1092437,64.1647059 18.8495798,64.1647059 C18.3680672,63.9478992 17.9319328,63.7462185 17.5512605,63.3983193 C17.6042017,63.2521008 17.6420168,63.0882353 17.6420168,62.9142857 C17.6420168,62.2840336 17.1806723,61.7773109 16.6084034,61.7016807 C16.507563,61.3890756 16.4243697,61.0663866 16.3537815,60.7386555 C16.2201681,60.1487395 16.0865546,59.5235294 15.7563025,58.9159664 C15.9731092,59.102521 16.2226891,59.2386555 16.507563,59.2386555 C17.1302521,59.2386555 17.6571429,58.6714286 17.6571429,58.0033613 C17.6571429,57.3352941 17.1327731,56.7756303 16.507563,56.7756303 C15.8672269,56.7756303 15.3579832,57.3352941 15.3579832,58.0033613 C15.3579832,58.1495798 15.3983193,58.2983193 15.4285714,58.4369748 C15.1386555,58.0638655 14.7579832,57.6957983 14.2084034,57.3806723 C13.0210084,56.7478992 11.9672269,55.4747899 11.1403361,53.9773109 C11.3420168,54.1739496 11.6117647,54.310084 11.9117647,54.310084 C12.5546218,54.310084 13.0613445,53.7579832 13.0613445,53.089916 C13.0613445,52.4218487 12.5571429,51.8546218 11.9117647,51.8546218 C11.2915966,51.8546218 10.7672269,52.4218487 10.7672269,53.089916 C10.7672269,53.2134454 10.802521,53.3142857 10.8428571,53.4403361 C10.5806723,52.8705882 10.3537815,52.2857143 10.1697479,51.7084034 C10.512605,51.4941176 10.7647059,51.1058824 10.7647059,50.6394958 C10.7647059,49.9663866 10.2781513,49.4394958 9.66554622,49.4117647 C9.61512605,48.9176471 9.60504202,48.4159664 9.61512605,47.9369748 C9.63529412,47.5991597 9.60252101,47.2512605 9.52689076,46.9210084 C9.56722689,46.9210084 9.60252101,46.9260504 9.62773109,46.9260504 C10.2655462,46.9260504 10.7747899,46.3739496 10.7747899,45.7084034 C10.7747899,45.0378151 10.2655462,44.4705882 9.62773109,44.4705882 C9.28235294,44.4705882 8.9697479,44.6596639 8.75798319,44.9394958 C8.58403361,44.6294118 8.40756303,44.3218487 8.20084034,44.0218487 C8.36722689,43.812605 8.48319328,43.5478992 8.48319328,43.2504202 C8.48319328,42.5722689 7.95630252,42.010084 7.33613445,42.010084 C7.15714286,42.010084 7.01092437,42.0655462 6.85966387,42.1361345 C6.7210084,41.9420168 6.57226891,41.7403361 6.43361345,41.5588235 C6.32016807,41.412605 6.21428571,41.2714286 6.11092437,41.1252101 C6.14621849,41.0193277 6.18403361,40.8957983 6.18403361,40.7747899 C6.18403361,40.1067227 5.67226891,39.5521008 5.05462185,39.5394958 C4.51512605,38.5714286 4.15462185,37.502521 3.98823529,36.3554622 C4.17731092,36.7739496 4.56302521,37.0815126 5.0394958,37.0815126 C5.65714286,37.0815126 6.18403361,36.5344538 6.18403361,35.8638655 C6.18403361,35.1857143 5.65714286,34.6260504 5.0394958,34.6260504 C4.47731092,34.6260504 4.04117647,35.0596639 3.94033613,35.6344538 C3.83697479,34.3840336 3.98823529,33.1134454 4.37394958,31.9285714 C4.5605042,32.0747899 4.78991597,32.1831933 5.0394958,32.1831933 C5.65714286,32.1831933 6.18403361,31.6336134 6.18403361,30.9630252 C6.18403361,30.3957983 5.80840336,29.9294118 5.32436975,29.7957983 C6.04789916,28.4369748 6.50672269,26.4680672 6.70840336,24.597479 C6.89747899,24.7210084 7.0789916,24.8092437 7.32352941,24.8092437 C7.94117647,24.8092437 8.47310924,24.2596639 8.47310924,23.5865546 C8.47310924,22.9033613 7.94117647,22.3563025 7.32352941,22.3563025 C7.13193277,22.3563025 6.95546218,22.4243697 6.79159664,22.505042 C6.79159664,22.3109244 6.79159664,22.1319328 6.78151261,21.9831933 C6.74621849,21.2596639 6.80672269,20.5436975 6.92268908,19.812605 C7.06134454,19.8705882 7.18487395,19.9159664 7.32352941,19.9159664 C7.94117647,19.9159664 8.47310924,19.3613445 8.47310924,18.6756303 C8.47310924,18.0983193 8.07731092,17.6420168 7.58067227,17.5033613 C8.2789916,15.7890756 9.41848739,14.3218487 10.812605,13.4798319 C10.7823529,13.5882353 10.7521008,13.6663866 10.7521008,13.7747899 C10.7521008,14.4529412 11.2739496,15.0176471 11.8991597,15.0176471 C12.5369748,15.0176471 13.0462185,14.4529412 13.0462185,13.7747899 C13.0462185,13.3487395 12.8394958,12.9907563 12.5117647,12.7512605 C12.8773109,12.6453782 13.2504202,12.5268908 13.6134454,12.3504202 C13.7848739,12.4537815 13.9890756,12.5571429 14.1983193,12.5571429 C14.8310924,12.5571429 15.3428571,11.987395 15.3428571,11.3168067 C15.3428571,11.1403361 15.302521,10.9764706 15.2596639,10.8302521 C15.3428571,10.6764706 15.4285714,10.497479 15.5319328,10.3084034 C15.605042,10.1218487 15.7058824,9.9605042 15.7815126,9.80672269 C15.9882353,9.9605042 16.2302521,10.1016807 16.507563,10.1016807 C17.1302521,10.1016807 17.6571429,9.52689076 17.6571429,8.86134454 C17.6571429,8.46302521 17.4554622,8.10756303 17.1705882,7.89327731 C17.4705882,7.6512605 17.8084034,7.50504202 18.1789916,7.41176471 C18.3680672,7.5302521 18.5621849,7.64117647 18.8067227,7.64117647 C19.1142857,7.64117647 19.4016807,7.49243697 19.6109244,7.26302521 C19.6386555,7.26302521 19.6512605,7.26302521 19.6739496,7.26302521 C20.087395,7.26302521 20.5159664,7.2907563 21.007563,7.31848739 L21.1991597,7.31848739 C21.6478992,7.31848739 22.0462185,7.20504202 22.4067227,7.02352941 C22.6058824,7.36890756 22.9537815,7.64117647 23.3647059,7.64117647 C24.002521,7.64117647 24.5168067,7.07647059 24.5168067,6.40336134 C24.5168067,6.06554622 24.3882353,5.75798319 24.1941176,5.54621849 C24.2067227,5.53109244 24.2168067,5.50336134 24.2268908,5.4907563 C24.4563025,5.26386555 24.6529412,5.02941176 24.892437,4.83529412 C25.0915966,5.02941176 25.3638655,5.17815126 25.6638655,5.17815126 C26.3067227,5.17815126 26.8084034,4.61848739 26.8084034,3.94789916 C26.8084034,3.87478992 26.7705882,3.78655462 26.7605042,3.72605042 C26.8361345,3.71344538 26.9016807,3.66806723 26.987395,3.65294118 L27.3605042,3.58487395 L27.5470588,3.41848739 C27.6201681,3.34537815 27.7210084,3.3302521 27.8319328,3.3302521 C28.189916,3.3302521 28.6714286,3.49411765 29.1605042,3.74369748 C29.1579832,3.81428571 29.1327731,3.87478992 29.1327731,3.92268908 C29.1327731,4.60084034 29.6394958,5.15798319 30.2823529,5.15798319 C30.4764706,5.15798319 30.6630252,5.07226891 30.8394958,4.96386555 C31.8504202,5.66722689 33.2369748,5.65210084 34.2806723,4.95882353 C34.4571429,5.06470588 34.6436975,5.14285714 34.8504202,5.14285714 C35.4705882,5.14285714 35.9596639,4.61848739 35.989916,3.9907563 C36.5344538,3.78403361 37.1521008,3.65042017 37.7647059,3.60756303 L38.3016807,3.62268908 C38.3268908,3.62268908 38.3369748,3.63781513 38.3647059,3.63781513 C38.3369748,3.73109244 38.3016807,3.82689076 38.3016807,3.92268908 C38.3016807,4.60084034 38.8109244,5.15798319 39.4512605,5.15798319 C39.7966387,5.15798319 40.1067227,4.96386555 40.3285714,4.69915966 C40.502521,4.89831933 40.7218487,5.1302521 40.9487395,5.38739496 C40.9714286,5.41512605 40.9865546,5.44033613 41.0092437,5.45042017 C40.7647059,5.66470588 40.5983193,6.00252101 40.5983193,6.35798319 C40.5983193,7.05378151 41.107563,7.59579832 41.7478992,7.59579832 C42.1714286,7.59579832 42.5193277,7.3487395 42.7361345,6.96302521 C43.0890756,7.1697479 43.4773109,7.28823529 43.9411765,7.28823529 L44.1151261,7.28823529 C44.6016807,7.24789916 45.0378151,7.23781513 45.4462185,7.23781513 C45.4739496,7.23781513 45.4890756,7.23781513 45.5168067,7.23781513 C45.7285714,7.47983193 46.0134454,7.61092437 46.3235294,7.61092437 C46.5680672,7.61092437 46.7596639,7.50252101 46.9487395,7.38403361 C47.3218487,7.48991597 47.6596639,7.63865546 47.9621849,7.86302521 C47.6722689,8.07226891 47.4731092,8.4302521 47.4731092,8.82857143 C47.4731092,9.52184874 47.992437,10.0663866 48.6201681,10.0663866 C48.889916,10.0663866 49.1319328,9.94789916 49.3436975,9.77394958 C49.4168067,9.94789916 49.507563,10.0966387 49.5932773,10.2781513 C49.6941176,10.4823529 49.7798319,10.6436975 49.8655462,10.807563 C49.8201681,10.9512605 49.7798319,11.1151261 49.7798319,11.2840336 C49.7798319,11.9747899 50.2890756,12.5218487 50.9319328,12.5218487 C51.1361345,12.5218487 51.3403361,12.4260504 51.5168067,12.3176471 C51.8722689,12.4915966 52.2478992,12.6151261 52.6109244,12.7210084 C52.2907563,12.9529412 52.0789916,13.2983193 52.0789916,13.7445378 C52.0789916,14.4302521 52.5882353,14.9798319 53.2285714,14.9798319 C53.8487395,14.9798319 54.3705882,14.4302521 54.3705882,13.7445378 C54.3705882,13.6537815 54.3378151,13.5579832 54.3151261,13.4495798 C55.7117647,14.3042017 56.8411765,15.7537815 57.5394958,17.4932773 C57.0478992,17.6344538 56.6521008,18.0756303 56.6521008,18.6529412 C56.6521008,19.3310924 57.1815126,19.8806723 57.8067227,19.8806723 C57.9428571,19.8806723 58.0663866,19.8378151 58.192437,19.805042 C58.3184874,20.5159664 58.3638655,21.2243697 58.3361345,21.9478992 C58.3310924,22.1268908 58.3310924,22.2957983 58.3310924,22.4747899 C58.1672269,22.3915966 58.0058824,22.3235294 57.8067227,22.3235294 C57.1815126,22.3235294 56.6521008,22.8680672 56.6521008,23.5638655 C56.6521008,24.2294118 57.1815126,24.7789916 57.8067227,24.7789916 C58.0462185,24.7789916 58.2403361,24.7008403 58.4168067,24.5672269 C58.6184874,26.4352941 59.0747899,28.3915966 59.7983193,29.7655462 C59.3168067,29.8966387 58.9361345,30.3705882 58.9361345,30.9277311 C58.9361345,31.6008403 59.4655462,32.1478992 60.0831933,32.1478992 C60.3352941,32.1478992 60.5747899,32.0445378 60.7436975,31.8932773 C61.1394958,33.1285714 61.2907563,34.3890756 61.189916,35.6546218 Z" id="Shape" fill="#338FFF"></path>
                <path d="M112.938655,65.8512605 C112.772269,63.8621849 112.603361,61.0512605 112.603361,59.4 L112.436975,59.4 C110.460504,63.5344538 105.342857,66.9201681 99.6605042,66.9201681 C89.6092437,66.9201681 85.0689076,59.7352941 85.0689076,50.997479 L85.0689076,26.7605042 L92.8285714,26.7605042 L92.8285714,48.3705882 C92.8285714,54.7915966 94.5529412,60.4033613 101.717647,60.4033613 C107.89916,60.4033613 112.197479,55.2957983 112.197479,47.5361345 L112.197479,26.7605042 L119.954622,26.7605042 L119.954622,57.4336134 C119.954622,59.4983193 120.02521,63.292437 120.272269,65.8512605 L112.938655,65.8512605 Z" id="Shape" fill="#3393FF"></path>
                <polygon id="Shape" fill="#FFFFFF" points="138.322689 43.7369748 138.564706 43.7369748 154.968908 26.7605042 165.360504 26.7605042 147.060504 44.4781513 166.931092 65.8537815 156.209244 65.8537815 138.564706 45.5521008 138.322689 45.5521008 138.322689 65.8537815 130.560504 65.8537815 130.560504 3.5092437 138.322689 3.5092437"></polygon>
                <path d="M177.806723,17.6168067 C175.005882,17.6168067 172.694118,15.3857143 172.694118,12.6731092 C172.694118,9.85462185 175.005882,7.63613445 177.806723,7.63613445 C180.602521,7.63613445 182.994958,9.78403361 182.994958,12.6731092 C182.994958,15.4638655 180.602521,17.6168067 177.806723,17.6168067 Z M181.67395,65.8512605 L173.939496,65.8512605 L173.939496,26.7605042 L181.67395,26.7605042 L181.67395,65.8512605 Z" id="Shape" fill="#FFFFFF"></path>
                <path d="M215.561345,33.1109244 L205.169748,33.1109244 L205.169748,53.4756303 C205.169748,58.1823529 206.821008,60.0705882 210.690756,60.0705882 C212.094958,60.0705882 213.907563,59.7352941 215.228571,59.0848739 L215.465546,65.4201681 C213.652941,66.0882353 211.263025,66.4915966 208.87563,66.4915966 C201.547059,66.4915966 197.485714,62.387395 197.485714,54.292437 L197.485714,33.1109244 L189.988235,33.1109244 L189.988235,26.7579832 L197.485714,26.7579832 L197.485714,15.5369748 L205.167227,15.5369748 L205.167227,26.7579832 L215.558824,26.7579832 L215.558824,33.1109244 L215.561345,33.1109244 Z" id="Shape" fill="#FFFFFF"></path>
                <path d="M235.053782,65.8512605 L225.9,65.8512605 L251.442857,6.93529412 L258.922689,6.93529412 L284.223529,65.8512605 L274.90084,65.8512605 L268.913445,51.3655462 L240.965546,51.3655462 L235.053782,65.8512605 Z M243.859664,44.1252101 L265.918487,44.1252101 L254.934454,16.494958 L243.859664,44.1252101 Z" id="Shape" fill="#FFFFFF"></path>
                <polygon id="Shape" fill="#FFFFFF" points="297.844538 65.8512605 289.615966 65.8512605 289.615966 6.93529412 297.844538 6.93529412"></polygon>
            </g>
        </g>
    </g>
</svg>